<?xml version="1.0" standalone="no"?>
<!DOCTYPE svg PUBLIC "-//W3C//DTD SVG 20010904//EN"
 "http://www.w3.org/TR/2001/REC-SVG-20010904/DTD/svg10.dtd">
<svg version="1.0" xmlns="http://www.w3.org/2000/svg"
 width="512.000000pt" height="512.000000pt" viewBox="0 0 512.000000 512.000000"
 preserveAspectRatio="xMidYMid meet">
<metadata>
Created by potrace 1.14, written by Peter Selinger 2001-2017
</metadata>
<g transform="translate(0.000000,512.000000) scale(0.100000,-0.100000)"
fill="#000000" stroke="none">
<path d="M960 2610 l0 -1970 218 2 217 3 2 940 c1 517 2 954 2 970 l1 30 655
0 655 0 0 207 0 208 -655 0 c-517 0 -655 3 -656 13 -1 17 -1 1108 0 1132 1 20
7 20 669 19 367 0 672 2 678 4 8 2 11 65 11 208 l0 204 -899 0 -898 0 0 -1970z"/>
<path d="M3709 3006 c-2 -2 -51 -6 -109 -9 -210 -12 -411 -69 -560 -159 -314
-190 -511 -500 -564 -888 -7 -50 -8 -297 -1 -347 45 -341 207 -615 490 -828
129 -97 314 -179 450 -200 17 -3 57 -9 90 -14 65 -11 364 -8 430 4 66 12 204
54 282 86 l73 31 0 270 0 271 -52 -50 c-158 -148 -332 -211 -548 -200 -352 19
-631 240 -721 572 -32 116 -32 328 0 440 92 330 338 553 651 591 50 6 168 6
188 0 9 -3 33 -7 54 -10 124 -19 291 -109 391 -212 l37 -38 0 271 0 271 -57
27 c-135 64 -274 101 -415 111 -51 3 -96 8 -99 10 -3 2 -8 2 -10 0z"/>
</g>
</svg>
