<?xml version="1.0" encoding="UTF-8"?><svg id="_レイヤー_1" xmlns="http://www.w3.org/2000/svg" viewBox="0 0 300 300"><defs><style>.cls-1{fill:#fff;}</style></defs><rect class="cls-1" x="-5.778" y="-5.778" width="311.557" height="311.557"/><g><path d="M44.597,160.69l-6.434,12.109v40.68H17.351V81.034h20.812v57.708l27.246-57.708h20.813l-28.949,59.033,28.949,73.413h-21.381l-20.245-52.79Z"/><path d="M105.143,81.034h32.923c20.812,0,31.029,11.542,31.029,32.733v66.98c0,21.191-10.217,32.733-31.029,32.733h-32.923V81.034Zm20.812,18.921v94.604h11.731c6.622,0,10.596-3.406,10.596-12.866V112.821c0-9.46-3.974-12.866-10.596-12.866h-11.731Z"/><path d="M237.968,142.905l-7.568,70.575h-28.57l-14.759-132.446h20.246l11.163,104.443,10.028-104.443h20.056l10.406,105.2,10.785-105.2h18.164l-14.759,132.446h-27.624l-7.568-70.575Z"/></g></svg>