<?xml version="1.0" encoding="UTF-8"?><svg id="uuid-27ef8cb6-022d-4661-8f04-b209b7813f21" xmlns="http://www.w3.org/2000/svg" viewBox="0 0 1125 168"><defs><style>.uuid-d3987388-c9b1-449f-ac8e-f520bfe5d49c{fill:#fff;}</style></defs><path class="uuid-d3987388-c9b1-449f-ac8e-f520bfe5d49c" d="M83.908,28.806H34.424v42.384h47.763v15.061H34.424v70.999h-15.921V13.745H83.908v15.061Z"/><path class="uuid-d3987388-c9b1-449f-ac8e-f520bfe5d49c" d="M127.797,13.745V142.189h39.587v15.061h-55.508V13.745h15.921Z"/><path class="uuid-d3987388-c9b1-449f-ac8e-f520bfe5d49c" d="M268.071,116.802h-61.103l-17.212,40.448h-17.642L238.166,6.86l64.33,150.389h-17.643l-16.781-40.448Zm-6.239-15.061l-24.097-57.445-24.527,57.445h48.624Z"/><path class="uuid-d3987388-c9b1-449f-ac8e-f520bfe5d49c" d="M386.833,42.145c-1.937-3.873-5.164-8.176-8.391-10.758-2.797-2.151-7.96-4.948-16.136-4.948-14.2,0-24.097,8.821-24.097,22.16,0,5.594,1.506,8.821,5.378,12.479,4.303,4.303,9.682,6.669,15.061,9.036l13.77,6.024c8.391,3.658,16.136,7.53,22.161,13.555,7.315,7.315,10.327,15.706,10.327,26.033,0,26.463-19.579,44.105-45.396,44.105-9.467,0-21.3-1.936-31.197-11.618-7.1-6.885-11.403-16.782-13.339-25.388l15.491-4.303c1.076,7.53,4.518,13.985,8.606,18.288,6.239,6.239,13.339,7.96,20.654,7.96,19.579,0,28.83-13.985,28.83-28.4,0-6.454-1.937-12.048-7.1-16.781-4.087-3.873-9.682-6.455-17.212-9.897l-12.909-6.024c-5.594-2.582-12.694-5.594-19.148-11.833-6.239-6.024-9.896-12.694-9.896-23.451,0-22.161,16.997-37.006,40.232-37.006,8.821,0,15.921,1.721,23.021,6.455,5.809,3.873,10.757,9.682,13.985,15.921l-12.694,8.391Z"/><path class="uuid-d3987388-c9b1-449f-ac8e-f520bfe5d49c" d="M450.084,72.051h73.581V13.745h15.921V157.249h-15.921V87.111h-73.581v70.139h-15.921V13.745h15.921v58.306Z"/><path class="uuid-d3987388-c9b1-449f-ac8e-f520bfe5d49c" d="M736.442,45.372c-4.518-4.518-11.402-9.897-18.718-13.339-7.53-3.442-16.352-5.594-24.742-5.594-33.133,0-57.66,26.678-57.66,59.812,0,38.942,31.627,58.521,57.875,58.521,9.682,0,19.148-2.797,26.679-6.67,8.176-4.087,13.985-9.466,16.566-12.048v19.794c-15.921,11.403-32.487,13.984-43.245,13.984-42.599,0-74.226-32.272-74.226-73.796,0-42.814,32.057-74.657,75.087-74.657,8.605,0,25.172,1.076,42.384,14.2v19.794Z"/><path class="uuid-d3987388-c9b1-449f-ac8e-f520bfe5d49c" d="M844.878,116.802h-61.103l-17.212,40.448h-17.642L814.972,6.86l64.33,150.389h-17.643l-16.781-40.448Zm-6.239-15.061l-24.097-57.445-24.527,57.445h48.624Z"/><path class="uuid-d3987388-c9b1-449f-ac8e-f520bfe5d49c" d="M922.546,13.745c9.682,0,24.097,.646,34.854,7.96,8.391,5.594,15.706,16.566,15.706,31.842,0,21.945-14.415,38.081-36.146,39.587l45.611,64.114h-19.363l-43.675-62.824h-4.088v62.824h-15.921V13.745h23.021Zm-7.1,66.481h10.112c19.793,0,31.627-9.466,31.627-26.248,0-7.96-2.367-15.921-11.403-21.084-6.454-3.658-13.77-4.088-20.654-4.088h-9.682v51.42Z"/><path class="uuid-d3987388-c9b1-449f-ac8e-f520bfe5d49c" d="M1007.53,13.745h29.26c14.415,0,34.854,1.506,52.927,16.782,13.124,10.973,24.527,29.26,24.527,55.078,0,30.121-14.846,46.257-25.173,55.078-13.124,11.188-26.894,16.566-52.496,16.566h-29.045V13.745Zm15.921,128.444h13.984c11.403,0,27.109-1.291,41.094-12.909,10.758-9.036,19.363-23.236,19.363-43.675,0-34.424-24.097-56.799-60.457-56.799h-13.984v113.383Z"/></svg>