<?xml version="1.0" encoding="UTF-8"?>
<svg id="uuid-02b10db9-a8d5-470c-b138-041bd0f3f954" data-name="レイヤー 1" xmlns="http://www.w3.org/2000/svg" viewBox="0 0 595.28 595.28">
  <path fill="currentColor" d="M288.757,68.794c-124.272-3.545-227.891,94.336-231.455,218.584-3.526,124.277,94.346,227.9,218.608,231.455,124.268,3.535,227.886-94.336,231.441-218.594,3.54-124.258-94.336-227.891-218.594-231.445Zm-100.586,185.195c-15.723,0-28.501-12.774-28.501-28.525s12.778-28.497,28.501-28.497,28.52,12.774,28.52,28.497-12.769,28.525-28.52,28.525Zm94.155,151.601c-40.166,0-72.744-32.568-72.744-72.744h145.503c0,40.176-32.573,72.744-72.759,72.744Zm94.17-151.601c-15.732,0-28.506-12.774-28.506-28.525s12.774-28.497,28.506-28.497,28.506,12.774,28.506,28.497-12.759,28.525-28.506,28.525Z"/>
</svg>
