<?xml version="1.0" encoding="UTF-8"?>
<svg id="uuid-d15d2365-7a4f-4fc3-91fa-76b2bfebeb1e" data-name="レイヤー 1" xmlns="http://www.w3.org/2000/svg" viewBox="0 0 595.28 595.28">
  <path fill="currentColor" d="M290.717,68.794c-124.268-3.545-227.896,94.336-231.446,218.584-3.544,124.277,94.346,227.9,218.594,231.455,124.268,3.535,227.901-94.336,231.455-218.594,3.526-124.258-94.355-227.891-218.603-231.445ZM161.61,225.464c0-15.723,12.779-28.497,28.501-28.497s28.516,12.774,28.516,28.497-12.764,28.525-28.516,28.525-28.501-12.774-28.501-28.525Zm207.515,160.185H199.457v-30.234h169.668v30.234Zm9.307-131.66c-15.743,0-28.506-12.774-28.506-28.525s12.763-28.497,28.506-28.497,28.515,12.774,28.515,28.497-12.773,28.525-28.515,28.525Z"/>
</svg>
