<?xml version="1.0" encoding="UTF-8"?>
<svg id="uuid-d1beb6a2-89e3-46bd-8abf-a3fc7edd436d" data-name="レイヤー 1" xmlns="http://www.w3.org/2000/svg" viewBox="0 0 595.28 595.28">
  <path fill="currentColor" d="M292.685,68.794c-124.282-3.545-227.9,94.336-231.45,218.584-3.55,124.277,94.341,227.9,218.584,231.455,124.273,3.535,227.905-94.336,231.46-218.594,3.526-124.258-94.35-227.891-218.594-231.445Zm-102.7,210.654c-4.013-4.014-19.551-20.518-27.358-29.971-8.169-9.902-16.079-20.635-16.079-35.215,0-12.275,9.433-22.05,21.181-22.05,9.878,0,18.697,5.546,22.256,17.05h.225c3.574-11.504,12.514-17.05,22.48-17.05,11.973,0,21.109,9.99,21.109,22.05,0,14.58-7.954,25.313-16.099,35.215-7.817,9.453-23.477,25.957-27.49,29.971h-.225Zm96.27,131.631c-40.181,0-72.754-32.569-72.754-72.735h145.493c0,40.166-32.573,72.735-72.739,72.735Zm123.633-161.602c-7.818,9.453-23.482,25.957-27.491,29.971h-.224c-4.019-4.014-19.561-20.518-27.364-29.971-8.169-9.902-16.088-20.635-16.088-35.215,0-12.275,9.453-22.05,21.196-22.05,9.868,0,18.696,5.546,22.256,17.05h.224c3.575-11.504,12.5-17.05,22.481-17.05,11.968,0,21.108,9.99,21.108,22.05,0,14.58-7.959,25.313-16.098,35.215Z"/>
</svg>
