<?xml version="1.0" encoding="UTF-8"?>
<svg id="uuid-f8b5317c-881c-4b34-a174-eafb2a792e23" data-name="レイヤー 1" xmlns="http://www.w3.org/2000/svg" viewBox="0 0 595.28 595.28">
  <path fill="currentColor" d="M294.655,68.794c-124.287-3.545-227.895,94.336-231.455,218.584-3.53,124.277,94.355,227.9,218.599,231.455,124.267,3.535,227.9-94.336,231.45-218.594,3.53-124.258-94.346-227.891-218.594-231.445Zm-100.596,185.195c-15.727,0-28.491-12.774-28.491-28.525s12.764-28.497,28.491-28.497,28.535,12.774,28.535,28.497-12.788,28.525-28.535,28.525Zm94.165,162.236c-24.741,0-44.809-25.586-44.809-57.148s20.068-57.149,44.809-57.149,44.82,25.586,44.82,57.149-20.059,57.148-44.82,57.148Zm94.156-162.236c-15.723,0-28.501-12.774-28.501-28.525s12.778-28.497,28.501-28.497,28.53,12.774,28.53,28.497-12.778,28.525-28.53,28.525Z"/>
</svg>
